<svg xmlns="http://www.w3.org/2000/svg" xmlns:xlink="http://www.w3.org/1999/xlink" contentStyleType="text/css" data-diagram-type="DESCRIPTION" height="771px" preserveAspectRatio="none" style="width:637px;height:771px;background:#FFFFFF;" version="1.1" viewBox="0 0 637 771" width="637px" zoomAndPan="magnify"><title>Pupil Courses - Architectural Schema</title><defs/><g><g class="title" data-source-line="1"><text fill="#000000" font-family="sans-serif" font-size="14" font-weight="bold" lengthAdjust="spacing" textLength="293.0566" x="165.2043" y="22.9951">Pupil Courses - Architectural Schema</text></g><!--cluster spring-boot-pupils-example--><g class="cluster" data-entity="spring-boot-pupils-example" data-source-line="5" data-uid="ent0003" id="cluster_spring-boot-pupils-example"><rect fill="none" height="602" rx="2.5" ry="2.5" style="stroke:#181818;stroke-width:1;" width="334" x="188" y="44.2969"/><text fill="#000000" font-family="sans-serif" font-size="14" font-weight="bold" lengthAdjust="spacing" textLength="218.2441" x="245.8779" y="59.292">spring-boot-pupils-example</text></g><!--cluster Controller--><g class="cluster" data-entity="Controller" data-source-line="7" data-uid="ent0004" id="cluster_Controller"><path d="M224.5,265.2969 L304.5713,265.2969 A3.75,3.75 0 0 1 307.0713,267.7969 L314.0713,287.5938 L481.5,287.5938 A2.5,2.5 0 0 1 484,290.0938 L484,359.7969 A2.5,2.5 0 0 1 481.5,362.2969 L224.5,362.2969 A2.5,2.5 0 0 1 222,359.7969 L222,267.7969 A2.5,2.5 0 0 1 224.5,265.2969" fill="none" style="stroke:#000000;stroke-width:1.5;"/><line style="stroke:#000000;stroke-width:1.5;" x1="222" x2="314.0713" y1="287.5938" y2="287.5938"/><text fill="#000000" font-family="sans-serif" font-size="14" font-weight="bold" lengthAdjust="spacing" textLength="79.0713" x="226" y="280.292">Controller</text></g><!--cluster Service--><g class="cluster" data-entity="Service" data-source-line="11" data-uid="ent0006" id="cluster_Service"><path d="M251.5,395.2969 L310.7012,395.2969 A3.75,3.75 0 0 1 313.2012,397.7969 L320.2012,417.5938 L460.5,417.5938 A2.5,2.5 0 0 1 463,420.0938 L463,489.7969 A2.5,2.5 0 0 1 460.5,492.2969 L251.5,492.2969 A2.5,2.5 0 0 1 249,489.7969 L249,397.7969 A2.5,2.5 0 0 1 251.5,395.2969" fill="none" style="stroke:#000000;stroke-width:1.5;"/><line style="stroke:#000000;stroke-width:1.5;" x1="249" x2="320.2012" y1="417.5938" y2="417.5938"/><text fill="#000000" font-family="sans-serif" font-size="14" font-weight="bold" lengthAdjust="spacing" textLength="58.2012" x="253" y="410.292">Service</text></g><!--cluster Repository--><g class="cluster" data-entity="Repository" data-source-line="15" data-uid="ent0008" id="cluster_Repository"><path d="M250.5,525.2969 L336.8877,525.2969 A3.75,3.75 0 0 1 339.3877,527.7969 L346.3877,547.5938 L475.5,547.5938 A2.5,2.5 0 0 1 478,550.0938 L478,619.7969 A2.5,2.5 0 0 1 475.5,622.2969 L250.5,622.2969 A2.5,2.5 0 0 1 248,619.7969 L248,527.7969 A2.5,2.5 0 0 1 250.5,525.2969" fill="none" style="stroke:#000000;stroke-width:1.5;"/><line style="stroke:#000000;stroke-width:1.5;" x1="248" x2="346.3877" y1="547.5938" y2="547.5938"/><text fill="#000000" font-family="sans-serif" font-size="14" font-weight="bold" lengthAdjust="spacing" textLength="85.3877" x="252" y="540.292">Repository</text></g><!--cluster SecurityConfig--><g class="cluster" data-entity="SecurityConfig" data-source-line="19" data-uid="ent0010" id="cluster_SecurityConfig"><path d="M222.5,95.2969 L339.6357,95.2969 A3.75,3.75 0 0 1 342.1357,97.7969 L349.1357,117.5938 L487.5,117.5938 A2.5,2.5 0 0 1 490,120.0938 L490,205.7969 A2.5,2.5 0 0 1 487.5,208.2969 L222.5,208.2969 A2.5,2.5 0 0 1 220,205.7969 L220,97.7969 A2.5,2.5 0 0 1 222.5,95.2969" fill="none" style="stroke:#000000;stroke-width:1.5;"/><line style="stroke:#000000;stroke-width:1.5;" x1="220" x2="349.1357" y1="117.5938" y2="117.5938"/><text fill="#000000" font-family="sans-serif" font-size="14" font-weight="bold" lengthAdjust="spacing" textLength="116.1357" x="224" y="110.292">SecurityConfig</text></g><!--entity PupilsCoursesApiController--><g class="entity" data-entity="PupilsCoursesApiController" data-source-line="8" data-uid="ent0005" id="entity_PupilsCoursesApiController"><rect fill="#F1F1F1" height="46.2969" rx="2.5" ry="2.5" style="stroke:#181818;stroke-width:0.5;" width="228.9727" x="238.5" y="300.2969"/><rect fill="#F1F1F1" height="10" style="stroke:#181818;stroke-width:0.5;" width="15" x="447.4727" y="305.2969"/><rect fill="#F1F1F1" height="2" style="stroke:#181818;stroke-width:0.5;" width="4" x="445.4727" y="307.2969"/><rect fill="#F1F1F1" height="2" style="stroke:#181818;stroke-width:0.5;" width="4" x="445.4727" y="311.2969"/><text fill="#000000" font-family="sans-serif" font-size="14" lengthAdjust="spacing" textLength="188.9727" x="253.5" y="333.292">PupilsCoursesApiController</text></g><!--entity PupilsCourseService--><g class="entity" data-entity="PupilsCourseService" data-source-line="12" data-uid="ent0007" id="entity_PupilsCourseService"><rect fill="#F1F1F1" height="46.2969" rx="2.5" ry="2.5" style="stroke:#181818;stroke-width:0.5;" width="181.8936" x="265" y="430.2969"/><rect fill="#F1F1F1" height="10" style="stroke:#181818;stroke-width:0.5;" width="15" x="426.8936" y="435.2969"/><rect fill="#F1F1F1" height="2" style="stroke:#181818;stroke-width:0.5;" width="4" x="424.8936" y="437.2969"/><rect fill="#F1F1F1" height="2" style="stroke:#181818;stroke-width:0.5;" width="4" x="424.8936" y="441.2969"/><text fill="#000000" font-family="sans-serif" font-size="14" lengthAdjust="spacing" textLength="141.8936" x="280" y="463.292">PupilsCourseService</text></g><!--entity PupilCourseRepository--><g class="entity" data-entity="PupilCourseRepository" data-source-line="16" data-uid="ent0009" id="entity_PupilCourseRepository"><rect fill="#F1F1F1" height="46.2969" rx="2.5" ry="2.5" style="stroke:#181818;stroke-width:0.5;" width="197.9307" x="264" y="560.2969"/><rect fill="#F1F1F1" height="10" style="stroke:#181818;stroke-width:0.5;" width="15" x="441.9307" y="565.2969"/><rect fill="#F1F1F1" height="2" style="stroke:#181818;stroke-width:0.5;" width="4" x="439.9307" y="567.2969"/><rect fill="#F1F1F1" height="2" style="stroke:#181818;stroke-width:0.5;" width="4" x="439.9307" y="571.2969"/><text fill="#000000" font-family="sans-serif" font-size="14" lengthAdjust="spacing" textLength="157.9307" x="279" y="593.292">PupilCourseRepository</text></g><!--entity PupilCourseBeanConfig--><g class="entity" data-entity="PupilCourseBeanConfig" data-source-line="20" data-uid="ent0011" id="entity_PupilCourseBeanConfig"><rect fill="#F1F1F1" height="46.2969" rx="2.5" ry="2.5" style="stroke:#181818;stroke-width:0.5;" width="203.4473" x="263.5" y="138.2969"/><rect fill="#F1F1F1" height="10" style="stroke:#181818;stroke-width:0.5;" width="15" x="446.9473" y="143.2969"/><rect fill="#F1F1F1" height="2" style="stroke:#181818;stroke-width:0.5;" width="4" x="444.9473" y="145.2969"/><rect fill="#F1F1F1" height="2" style="stroke:#181818;stroke-width:0.5;" width="4" x="444.9473" y="149.2969"/><text fill="#000000" font-family="sans-serif" font-size="14" lengthAdjust="spacing" textLength="163.4473" x="278.5" y="171.292">PupilCourseBeanConfig</text></g><!--entity Angular--><g class="entity" data-entity="Angular" data-source-line="3" data-uid="ent0002" id="entity_Angular"><ellipse cx="88.8823" cy="131.7969" fill="#F1F1F1" rx="8" ry="8" style="stroke:#181818;stroke-width:0.5;"/><path d="M88.8823,139.7969 L88.8823,166.7969 M75.8823,147.7969 L101.8823,147.7969 M88.8823,166.7969 L75.8823,181.7969 M88.8823,166.7969 L101.8823,181.7969" fill="none" style="stroke:#181818;stroke-width:0.5;"/><text fill="#000000" font-family="sans-serif" font-size="14" lengthAdjust="spacing" textLength="165.7646" x="6" y="196.292">angular-pupils-example</text></g><!--entity db--><g class="entity" data-entity="db" data-source-line="25" data-uid="ent0012" id="entity_db"><path d="M410,719.2969 C410,709.2969 472.7939,709.2969 472.7939,709.2969 C472.7939,709.2969 535.5879,709.2969 535.5879,719.2969 L535.5879,744.5938 C535.5879,754.5938 472.7939,754.5938 472.7939,754.5938 C472.7939,754.5938 410,754.5938 410,744.5938 L410,719.2969" fill="#F1F1F1" style="stroke:#181818;stroke-width:0.5;"/><path d="M410,719.2969 C410,729.2969 472.7939,729.2969 472.7939,729.2969 C472.7939,729.2969 535.5879,729.2969 535.5879,719.2969" fill="none" style="stroke:#181818;stroke-width:0.5;"/><text fill="#000000" font-family="sans-serif" font-size="14" lengthAdjust="spacing" textLength="105.5879" x="420" y="746.292">PostgreSQL DB</text></g><!--entity Flyway--><g class="entity" data-entity="Flyway" data-source-line="26" data-uid="ent0013" id="entity_Flyway"><rect fill="#F1F1F1" height="46.2969" rx="2.5" ry="2.5" style="stroke:#181818;stroke-width:0.5;" width="88.542" x="537.5" y="560.2969"/><rect fill="#F1F1F1" height="10" style="stroke:#181818;stroke-width:0.5;" width="15" x="606.042" y="565.2969"/><rect fill="#F1F1F1" height="2" style="stroke:#181818;stroke-width:0.5;" width="4" x="604.042" y="567.2969"/><rect fill="#F1F1F1" height="2" style="stroke:#181818;stroke-width:0.5;" width="4" x="604.042" y="571.2969"/><text fill="#000000" font-family="sans-serif" font-size="14" lengthAdjust="spacing" textLength="48.542" x="552.5" y="593.292">Flyway</text></g><!--link Angular to PupilsCoursesApiController--><g class="link" data-entity-1="Angular" data-entity-2="PupilsCoursesApiController" data-source-line="28" data-uid="lnk14" id="link_Angular_PupilsCoursesApiController"><path d="M122.31,199.3669 C138.77,216.1669 159.66,235.3369 181,249.2969 C213.44,270.5269 247.4543,285.7242 280.4943,298.1542" fill="none" id="Angular-to-PupilsCoursesApiController" style="stroke:#181818;stroke-width:1;"/><polygon fill="#181818" points="286.11,300.2669,279.0949,293.354,281.4302,298.5063,276.2779,300.8416,286.11,300.2669" style="stroke:#181818;stroke-width:1;"/><text fill="#000000" font-family="sans-serif" font-size="13" lengthAdjust="spacing" textLength="63.8574" x="182" y="245.3638">HTTP GET</text></g><!--link PupilsCoursesApiController to PupilsCourseService--><g class="link" data-entity-1="PupilsCoursesApiController" data-entity-2="PupilsCourseService" data-source-line="29" data-uid="lnk15" id="link_PupilsCoursesApiController_PupilsCourseService"><path d="M353.52,346.2969 C354.07,369.7469 354.7896,400.6585 355.3396,424.1485" fill="none" id="PupilsCoursesApiController-to-PupilsCourseService" style="stroke:#181818;stroke-width:1;"/><polygon fill="#181818" points="355.48,430.1469,359.2682,421.0557,355.363,425.1482,351.2704,421.243,355.48,430.1469" style="stroke:#181818;stroke-width:1;"/></g><!--link PupilsCourseService to PupilCourseRepository--><g class="link" data-entity-1="PupilsCourseService" data-entity-2="PupilCourseRepository" data-source-line="30" data-uid="lnk16" id="link_PupilsCourseService_PupilCourseRepository"><path d="M357.2,476.2969 C358.49,499.7469 360.171,530.6659 361.461,554.1559" fill="none" id="PupilsCourseService-to-PupilCourseRepository" style="stroke:#181818;stroke-width:1;"/><polygon fill="#181818" points="361.79,560.1469,365.2905,550.9411,361.5158,555.1544,357.3025,551.3798,361.79,560.1469" style="stroke:#181818;stroke-width:1;"/></g><!--link PupilCourseRepository to db--><g class="link" data-entity-1="PupilCourseRepository" data-entity-2="db" data-source-line="31" data-uid="lnk17" id="link_PupilCourseRepository_db"><path d="M365.66,606.6469 C369.06,627.2669 376.62,657.8569 393,679.2969 C402.12,691.2369 409.7784,698.0227 422.4184,705.9027" fill="none" id="PupilCourseRepository-to-db" style="stroke:#181818;stroke-width:1;"/><polygon fill="#181818" points="427.51,709.0769,421.9887,700.9212,423.267,706.4317,417.7565,707.71,427.51,709.0769" style="stroke:#181818;stroke-width:1;"/><text fill="#000000" font-family="sans-serif" font-size="13" lengthAdjust="spacing" textLength="118.7075" x="394" y="675.3638">Query/Persistence</text></g><!--link Flyway to db--><g class="link" data-entity-1="Flyway" data-entity-2="db" data-source-line="32" data-uid="lnk18" id="link_Flyway_db"><path d="M569.26,606.5569 C557.59,626.3069 539.4,655.6169 521,679.2969 C512.98,689.6269 507.4196,695.9832 498.8496,704.9332" fill="none" id="Flyway-to-db" style="stroke:#181818;stroke-width:1;"/><polygon fill="#181818" points="494.7,709.2669,503.8136,705.5328,498.158,705.6555,498.0354,700,494.7,709.2669" style="stroke:#181818;stroke-width:1;"/><text fill="#000000" font-family="sans-serif" font-size="13" lengthAdjust="spacing" textLength="96.4653" x="533" y="675.3638">Data Migration</text></g><!--link SecurityConfig to PupilsCoursesApiController--><g class="link" data-entity-1="SecurityConfig" data-entity-2="PupilsCoursesApiController" data-source-line="33" data-uid="lnk19" id="link_SecurityConfig_PupilsCoursesApiController"><path d="M239.9391,208.4154 C239.9821,208.5201 240.0252,208.6247 240.0685,208.7293 C240.2415,209.1478 240.4168,209.5655 240.5943,209.9823 C241.3044,211.6496 242.0506,213.3025 242.8344,214.9298 C244.402,218.1845 246.12,221.3369 248,224.2969 C267.39,254.8169 293.7505,278.5405 317.0805,296.5505" fill="none" id="SecurityConfig-to-PupilsCoursesApiController" style="stroke:#181818;stroke-width:1;stroke-dasharray:7,7;"/><polygon fill="#181818" points="321.83,300.2169,317.1501,291.5509,317.8721,297.1615,312.2615,297.8835,321.83,300.2169" style="stroke:#181818;stroke-width:1;"/></g><!--link PupilCourseBeanConfig to PupilsCoursesApiController--><g class="link" data-entity-1="PupilCourseBeanConfig" data-entity-2="PupilsCoursesApiController" data-source-line="34" data-uid="lnk20" id="link_PupilCourseBeanConfig_PupilsCoursesApiController"><path d="M363.33,184.5469 C361.04,215.1169 357.3897,263.7837 355.0997,294.2537" fill="none" id="PupilCourseBeanConfig-to-PupilsCoursesApiController" style="stroke:#181818;stroke-width:1;stroke-dasharray:7,7;"/><polygon fill="#181818" points="354.65,300.2369,359.3133,291.562,355.0247,295.2509,351.3357,290.9624,354.65,300.2369" style="stroke:#181818;stroke-width:1;"/></g><!--SRC=[XP5DJiCm48NtFiKe-vGz2wIMyhC0AQMvmCGPKWl7jiOE427kpfIq2agZO7bXZR_tFFESJB84HHUCXLlVSQG8EQnP7qmYdJf62tjze1QLGfqymzerdKK6Z93XSCx3KHzp-iGsMCgKOj7AfLXdCR1nJLvvdwOSV2a5452_OKFol4lihIMMEiZIlWtUaKj3V_7KtpgO4HNm-w_9dlZTQ5fqE35JwGi57usCsC-h1_58NJwjEpQfb-PUJRFaiI5q0pLuoAunOOLHyYfyJ0tJVlS4sqrsZBckr6XpR_iFx9KwVqEUtop40zVmM9O5FDoLQe6QcfmJcgcDx4KUizLVlgwaaLr7t5yLnD74H4xiXrb6OYiXmBDf69FnJaq2NQsM9bMp-VuZ-W40]--></g></svg>