<?plantuml 1.2026.2?><svg xmlns="http://www.w3.org/2000/svg" xmlns:xlink="http://www.w3.org/1999/xlink" contentStyleType="text/css" data-diagram-type="DESCRIPTION" height="930px" preserveAspectRatio="none" style="width:1066px;height:930px;background:#FFFFFF;" version="1.1" viewBox="0 0 1066 930" width="1066px" zoomAndPan="magnify"><title>Pupil Courses - Architectural Schema</title><defs/><g><g class="title" data-source-line="1"><text fill="#000000" font-family="sans-serif" font-size="14" font-weight="bold" lengthAdjust="spacing" textLength="250.5166" x="401.0171" y="24.5332">Pupil Courses - Architectural Schema</text></g><!--cluster spring-boot-pupils-example--><g class="cluster" data-qualified-name="spring-boot-pupils-example" data-source-line="5" id="ent0003"><rect fill="none" height="757" rx="2.5" ry="2.5" style="stroke:#181818;stroke-width:1;" width="778" x="181" y="45.6094"/><text fill="#000000" font-family="sans-serif" font-size="14" font-weight="bold" lengthAdjust="spacing" textLength="184.3379" x="477.8311" y="62.1426">spring-boot-pupils-example</text></g><!--cluster Controller--><g class="cluster" data-qualified-name="spring-boot-pupils-example.Controller" data-source-line="7" id="ent0004"><path d="M207.5,252.6094 L275.3896,252.6094 A3.75,3.75 0 0 1 277.8896,255.1094 L284.8896,276.2188 L446.5,276.2188 A2.5,2.5 0 0 1 449,278.7188 L449,350.1094 A2.5,2.5 0 0 1 446.5,352.6094 L207.5,352.6094 A2.5,2.5 0 0 1 205,350.1094 L205,255.1094 A2.5,2.5 0 0 1 207.5,252.6094" fill="none" style="stroke:#000000;stroke-width:1.5;"/><line style="stroke:#000000;stroke-width:1.5;" x1="205" x2="284.8896" y1="276.2188" y2="276.2188"/><text fill="#000000" font-family="sans-serif" font-size="14" font-weight="bold" lengthAdjust="spacing" textLength="66.8896" x="209" y="269.1426">Controller</text></g><!--cluster Service--><g class="cluster" data-qualified-name="spring-boot-pupils-example.Service" data-source-line="11" id="ent0006"><path d="M452.5,402.6094 L503.3203,402.6094 A3.75,3.75 0 0 1 505.8203,405.1094 L512.8203,426.2188 L932.5,426.2188 A2.5,2.5 0 0 1 935,428.7188 L935,626.1094 A2.5,2.5 0 0 1 932.5,628.6094 L452.5,628.6094 A2.5,2.5 0 0 1 450,626.1094 L450,405.1094 A2.5,2.5 0 0 1 452.5,402.6094" fill="none" style="stroke:#000000;stroke-width:1.5;"/><line style="stroke:#000000;stroke-width:1.5;" x1="450" x2="512.8203" y1="426.2188" y2="426.2188"/><text fill="#000000" font-family="sans-serif" font-size="14" font-weight="bold" lengthAdjust="spacing" textLength="49.8203" x="454" y="419.1426">Service</text></g><!--cluster Repository--><g class="cluster" data-qualified-name="spring-boot-pupils-example.Repository" data-source-line="17" id="ent0010"><path d="M503.5,678.6094 L577.624,678.6094 A3.75,3.75 0 0 1 580.124,681.1094 L587.124,702.2188 L714.5,702.2188 A2.5,2.5 0 0 1 717,704.7188 L717,776.1094 A2.5,2.5 0 0 1 714.5,778.6094 L503.5,778.6094 A2.5,2.5 0 0 1 501,776.1094 L501,681.1094 A2.5,2.5 0 0 1 503.5,678.6094" fill="none" style="stroke:#000000;stroke-width:1.5;"/><line style="stroke:#000000;stroke-width:1.5;" x1="501" x2="587.124" y1="702.2188" y2="702.2188"/><text fill="#000000" font-family="sans-serif" font-size="14" font-weight="bold" lengthAdjust="spacing" textLength="73.124" x="505" y="695.1426">Repository</text></g><!--cluster Config--><g class="cluster" data-qualified-name="spring-boot-pupils-example.Config" data-source-line="21" id="ent0012"><path d="M378.5,89.6094 L423.8174,89.6094 A3.75,3.75 0 0 1 426.3174,92.1094 L433.3174,113.2188 L932.5,113.2188 A2.5,2.5 0 0 1 935,115.7188 L935,187.1094 A2.5,2.5 0 0 1 932.5,189.6094 L378.5,189.6094 A2.5,2.5 0 0 1 376,187.1094 L376,92.1094 A2.5,2.5 0 0 1 378.5,89.6094" fill="none" style="stroke:#000000;stroke-width:1.5;"/><line style="stroke:#000000;stroke-width:1.5;" x1="376" x2="433.3174" y1="113.2188" y2="113.2188"/><text fill="#000000" font-family="sans-serif" font-size="14" font-weight="bold" lengthAdjust="spacing" textLength="44.3174" x="380" y="106.1426">Config</text></g><!--entity PupilsCoursesApiController--><g class="entity" data-qualified-name="spring-boot-pupils-example.Controller.PupilsCoursesApiController" data-source-line="8" id="ent0005"><rect fill="#F1F1F1" height="47.6094" rx="2.5" ry="2.5" style="stroke:#181818;stroke-width:0.5;" width="211.1855" x="221.5" y="288.6094"/><rect fill="#F1F1F1" height="10" style="stroke:#181818;stroke-width:0.5;" width="15" x="412.6855" y="293.6094"/><rect fill="#F1F1F1" height="2" style="stroke:#181818;stroke-width:0.5;" width="4" x="410.6855" y="295.6094"/><rect fill="#F1F1F1" height="2" style="stroke:#181818;stroke-width:0.5;" width="4" x="410.6855" y="299.6094"/><text fill="#000000" font-family="sans-serif" font-size="14" lengthAdjust="spacing" textLength="171.1855" x="236.5" y="323.1426">PupilsCoursesApiController</text></g><!--entity PupilCourseService--><g class="entity" data-qualified-name="spring-boot-pupils-example.Service.PupilCourseService" data-source-line="12" id="ent0007"><rect fill="#F1F1F1" height="47.6094" rx="2.5" ry="2.5" style="stroke:#181818;stroke-width:0.5;" width="162.9443" x="486.5" y="564.6094"/><rect fill="#F1F1F1" height="10" style="stroke:#181818;stroke-width:0.5;" width="15" x="629.4443" y="569.6094"/><rect fill="#F1F1F1" height="2" style="stroke:#181818;stroke-width:0.5;" width="4" x="627.4443" y="571.6094"/><rect fill="#F1F1F1" height="2" style="stroke:#181818;stroke-width:0.5;" width="4" x="627.4443" y="575.6094"/><text fill="#000000" font-family="sans-serif" font-size="14" lengthAdjust="spacing" textLength="122.9443" x="501.5" y="599.1426">PupilCourseService</text></g><!--entity MessagingPublisherService--><g class="entity" data-qualified-name="spring-boot-pupils-example.Service.MessagingPublisherService" data-source-line="13" id="ent0008"><rect fill="#F1F1F1" height="47.6094" rx="2.5" ry="2.5" style="stroke:#181818;stroke-width:0.5;" width="212.751" x="705.5" y="438.6094"/><rect fill="#F1F1F1" height="10" style="stroke:#181818;stroke-width:0.5;" width="15" x="898.251" y="443.6094"/><rect fill="#F1F1F1" height="2" style="stroke:#181818;stroke-width:0.5;" width="4" x="896.251" y="445.6094"/><rect fill="#F1F1F1" height="2" style="stroke:#181818;stroke-width:0.5;" width="4" x="896.251" y="449.6094"/><text fill="#000000" font-family="sans-serif" font-size="14" lengthAdjust="spacing" textLength="172.751" x="720.5" y="473.1426">MessagingPublisherService</text></g><!--entity MessagingListenerService--><g class="entity" data-qualified-name="spring-boot-pupils-example.Service.MessagingListenerService" data-source-line="14" id="ent0009"><rect fill="#F1F1F1" height="47.6094" rx="2.5" ry="2.5" style="stroke:#181818;stroke-width:0.5;" width="204.1924" x="466" y="438.6094"/><rect fill="#F1F1F1" height="10" style="stroke:#181818;stroke-width:0.5;" width="15" x="650.1924" y="443.6094"/><rect fill="#F1F1F1" height="2" style="stroke:#181818;stroke-width:0.5;" width="4" x="648.1924" y="445.6094"/><rect fill="#F1F1F1" height="2" style="stroke:#181818;stroke-width:0.5;" width="4" x="648.1924" y="449.6094"/><text fill="#000000" font-family="sans-serif" font-size="14" lengthAdjust="spacing" textLength="164.1924" x="481" y="473.1426">MessagingListenerService</text></g><!--entity PupilCourseRepository--><g class="entity" data-qualified-name="spring-boot-pupils-example.Repository.PupilCourseRepository" data-source-line="18" id="ent0011"><rect fill="#F1F1F1" height="47.6094" rx="2.5" ry="2.5" style="stroke:#181818;stroke-width:0.5;" width="183.1787" x="517.5" y="714.6094"/><rect fill="#F1F1F1" height="10" style="stroke:#181818;stroke-width:0.5;" width="15" x="680.6787" y="719.6094"/><rect fill="#F1F1F1" height="2" style="stroke:#181818;stroke-width:0.5;" width="4" x="678.6787" y="721.6094"/><rect fill="#F1F1F1" height="2" style="stroke:#181818;stroke-width:0.5;" width="4" x="678.6787" y="725.6094"/><text fill="#000000" font-family="sans-serif" font-size="14" lengthAdjust="spacing" textLength="143.1787" x="532.5" y="749.1426">PupilCourseRepository</text></g><!--entity PupilCourseSecurityBeanConfig--><g class="entity" data-qualified-name="spring-boot-pupils-example.Config.PupilCourseSecurityBeanConfig" data-source-line="22" id="ent0013"><rect fill="#F1F1F1" height="47.6094" rx="2.5" ry="2.5" style="stroke:#181818;stroke-width:0.5;" width="239.999" x="392" y="125.6094"/><rect fill="#F1F1F1" height="10" style="stroke:#181818;stroke-width:0.5;" width="15" x="611.999" y="130.6094"/><rect fill="#F1F1F1" height="2" style="stroke:#181818;stroke-width:0.5;" width="4" x="609.999" y="132.6094"/><rect fill="#F1F1F1" height="2" style="stroke:#181818;stroke-width:0.5;" width="4" x="609.999" y="136.6094"/><text fill="#000000" font-family="sans-serif" font-size="14" lengthAdjust="spacing" textLength="199.999" x="407" y="160.1426">PupilCourseSecurityBeanConfig</text></g><!--entity PupilCourseRabbitMQBeanConfig--><g class="entity" data-qualified-name="spring-boot-pupils-example.Config.PupilCourseRabbitMQBeanConfig" data-source-line="23" id="ent0014"><rect fill="#F1F1F1" height="47.6094" rx="2.5" ry="2.5" style="stroke:#181818;stroke-width:0.5;" width="252.4473" x="667" y="125.6094"/><rect fill="#F1F1F1" height="10" style="stroke:#181818;stroke-width:0.5;" width="15" x="899.4473" y="130.6094"/><rect fill="#F1F1F1" height="2" style="stroke:#181818;stroke-width:0.5;" width="4" x="897.4473" y="132.6094"/><rect fill="#F1F1F1" height="2" style="stroke:#181818;stroke-width:0.5;" width="4" x="897.4473" y="136.6094"/><text fill="#000000" font-family="sans-serif" font-size="14" lengthAdjust="spacing" textLength="212.4473" x="682" y="160.1426">PupilCourseRabbitMQBeanConfig</text></g><!--entity Angular--><g class="entity" data-qualified-name="Angular" data-source-line="3" id="ent0002"><ellipse cx="78.7617" cy="119.1094" fill="#F1F1F1" rx="8" ry="8" style="stroke:#181818;stroke-width:0.5;"/><path d="M78.7617,127.1094 L78.7617,154.1094 M65.7617,135.1094 L91.7617,135.1094 M78.7617,154.1094 L65.7617,169.1094 M78.7617,154.1094 L91.7617,169.1094" fill="none" style="stroke:#181818;stroke-width:0.5;"/><text fill="#000000" font-family="sans-serif" font-size="14" lengthAdjust="spacing" textLength="145.5234" x="6" y="185.1426">angular-pupils-example</text></g><!--entity mq--><g class="entity" data-qualified-name="mq" data-source-line="27" id="ent0015"><path d="M980.5,574.6094 L1053.5205,574.6094 C1058.5205,574.6094 1058.5205,588.4141 1058.5205,588.4141 C1058.5205,588.4141 1058.5205,602.2188 1053.5205,602.2188 L980.5,602.2188 C975.5,602.2188 975.5,588.4141 975.5,588.4141 C975.5,588.4141 975.5,574.6094 980.5,574.6094" fill="#F1F1F1" style="stroke:#181818;stroke-width:0.5;"/><path d="M1053.5205,574.6094 C1048.5205,574.6094 1048.5205,588.4141 1048.5205,588.4141 C1048.5205,602.2188 1053.5205,602.2188 1053.5205,602.2188" fill="none" style="stroke:#181818;stroke-width:0.5;"/><text fill="#000000" font-family="sans-serif" font-size="14" lengthAdjust="spacing" textLength="63.0205" x="980.5" y="594.1426">RabbitMQ</text></g><!--entity db--><g class="entity" data-qualified-name="db" data-source-line="28" id="ent0016"><path d="M682,876.6094 C682,866.6094 741.7998,866.6094 741.7998,866.6094 C741.7998,866.6094 801.5996,866.6094 801.5996,876.6094 L801.5996,903.2188 C801.5996,913.2188 741.7998,913.2188 741.7998,913.2188 C741.7998,913.2188 682,913.2188 682,903.2188 L682,876.6094" fill="#F1F1F1" style="stroke:#181818;stroke-width:0.5;"/><path d="M682,876.6094 C682,886.6094 741.7998,886.6094 741.7998,886.6094 C741.7998,886.6094 801.5996,886.6094 801.5996,876.6094" fill="none" style="stroke:#181818;stroke-width:0.5;"/><text fill="#000000" font-family="sans-serif" font-size="14" lengthAdjust="spacing" textLength="99.5996" x="692" y="905.1426">PostgreSQL DB</text></g><!--entity Flyway--><g class="entity" data-qualified-name="Flyway" data-source-line="29" id="ent0017"><rect fill="#F1F1F1" height="47.6094" rx="2.5" ry="2.5" style="stroke:#181818;stroke-width:0.5;" width="83.5586" x="975" y="714.6094"/><rect fill="#F1F1F1" height="10" style="stroke:#181818;stroke-width:0.5;" width="15" x="1038.5586" y="719.6094"/><rect fill="#F1F1F1" height="2" style="stroke:#181818;stroke-width:0.5;" width="4" x="1036.5586" y="721.6094"/><rect fill="#F1F1F1" height="2" style="stroke:#181818;stroke-width:0.5;" width="4" x="1036.5586" y="725.6094"/><text fill="#000000" font-family="sans-serif" font-size="14" lengthAdjust="spacing" textLength="43.5586" x="990" y="749.1426">Flyway</text></g><!--link Angular to PupilsCoursesApiController--><g class="link" data-entity-1="ent0002" data-entity-2="ent0005" data-link-type="dependency" data-source-line="31" id="lnk18"><path d="M64.09,188.8594 C60.37,205.0194 59.91,223.1594 70,236.6094 C88.79,261.6594 153.123,279.9109 215.423,292.7209" fill="none" id="Angular-to-PupilsCoursesApiController" style="stroke:#181818;stroke-width:1;"/><polygon fill="#181818" points="221.3,293.9294,213.29,288.1987,216.4025,292.9224,211.6788,296.0348,221.3,293.9294" style="stroke:#181818;stroke-width:1;"/><text fill="#000000" font-family="sans-serif" font-size="13" lengthAdjust="spacing" textLength="175.5571" x="71" y="233.1045">HTTP GET /api/pupils/courses</text></g><!--link Angular to PupilsCoursesApiController--><g class="link" data-entity-1="ent0002" data-entity-2="ent0005" data-link-type="dependency" data-source-line="36" id="lnk22"><path d="M152.2,170.3694 C184.43,181.2994 221.57,197.1094 251,218.6094 C277.09,237.6794 296.1655,262.7282 309.7455,283.4882" fill="none" id="Angular-to-PupilsCoursesApiController-1" style="stroke:#181818;stroke-width:1;"/><polygon fill="#181818" points="313.03,288.5094,311.4506,278.788,310.2929,284.3251,304.7558,283.1674,313.03,288.5094" style="stroke:#181818;stroke-width:1;"/><text fill="#000000" font-family="sans-serif" font-size="13" lengthAdjust="spacing" textLength="221.1016" x="271" y="233.1045">HTTP POST /api/pupils/course/update</text></g><!--link PupilsCoursesApiController to PupilCourseService--><g class="link" data-entity-1="ent0005" data-entity-2="ent0007" data-link-type="dependency" data-source-line="32" id="lnk19"><path d="M295.41,336.8094 C278.46,351.2994 259.21,371.5494 250,394.6094 C234.83,432.5794 225.86,453.6094 250,486.6094 C278.17,525.1194 395.9084,554.7032 480.4484,571.7532" fill="none" id="PupilsCoursesApiController-to-PupilCourseService" style="stroke:#181818;stroke-width:1;"/><polygon fill="#181818" points="486.33,572.9394,478.2984,567.239,481.4287,571.9509,476.7168,575.0811,486.33,572.9394" style="stroke:#181818;stroke-width:1;"/><text fill="#000000" font-family="sans-serif" font-size="13" lengthAdjust="spacing" textLength="197.228" x="251" y="468.1045">getPupilsWithCoursesByName(...)</text></g><!--link PupilCourseService to PupilCourseRepository--><g class="link" data-entity-1="ent0007" data-entity-2="ent0011" data-link-type="dependency" data-source-line="33" id="lnk20"><path d="M567.37,612.6594 C567.51,627.2094 568.69,646.2694 573,662.6094 C577.83,680.8994 584.2429,694.8552 592.1829,709.2552" fill="none" id="PupilCourseService-to-PupilCourseRepository" style="stroke:#181818;stroke-width:1;"/><polygon fill="#181818" points="595.08,714.5094,594.2371,704.6966,592.6657,710.1309,587.2315,708.5595,595.08,714.5094" style="stroke:#181818;stroke-width:1;"/></g><!--link PupilCourseService to PupilCourseRepository--><g class="link" data-entity-1="ent0007" data-entity-2="ent0011" data-link-type="dependency" data-source-line="41" id="lnk27"><path d="M574.41,612.7294 C582.06,640.3794 593.2098,680.5867 600.8998,708.3767" fill="none" id="PupilCourseService-to-PupilCourseRepository-1" style="stroke:#181818;stroke-width:1;"/><polygon fill="#181818" points="602.5,714.1594,603.9549,704.4186,601.1665,709.3405,596.2446,706.5521,602.5,714.1594" style="stroke:#181818;stroke-width:1;"/><text fill="#000000" font-family="sans-serif" font-size="13" lengthAdjust="spacing" textLength="78.0444" x="588" y="659.1045">findById/save</text></g><!--link PupilCourseRepository to db--><g class="link" data-entity-1="ent0011" data-entity-2="ent0016" data-link-type="dependency" data-source-line="34" id="lnk21"><path d="M642.1,762.6294 C661.43,777.1694 685.39,797.2094 703,818.6094 C715,833.1894 722.5996,846.5874 729.5496,861.1074" fill="none" id="PupilCourseRepository-to-db" style="stroke:#181818;stroke-width:1;"/><polygon fill="#181818" points="732.14,866.5194,731.8623,856.6744,729.9813,862.0094,724.6463,860.1284,732.14,866.5194" style="stroke:#181818;stroke-width:1;"/><text fill="#000000" font-family="sans-serif" font-size="13" lengthAdjust="spacing" textLength="50.5718" x="716" y="833.1045">SELECT</text></g><!--link PupilCourseRepository to db--><g class="link" data-entity-1="ent0011" data-entity-2="ent0016" data-link-type="dependency" data-source-line="42" id="lnk28"><path d="M599.63,762.9494 C592.8,784.0794 587.09,815.0994 602,836.6094 C620.04,862.6394 646.8286,874.4522 676.0586,881.0822" fill="none" id="PupilCourseRepository-to-db-1" style="stroke:#181818;stroke-width:1;"/><polygon fill="#181818" points="681.91,882.4094,674.0178,876.5176,677.0339,881.3034,672.2481,884.3195,681.91,882.4094" style="stroke:#181818;stroke-width:1;"/><text fill="#000000" font-family="sans-serif" font-size="13" lengthAdjust="spacing" textLength="91.0254" x="603" y="833.1045">UPDATE status</text></g><!--link PupilsCoursesApiController to MessagingPublisherService--><g class="link" data-entity-1="ent0005" data-entity-2="ent0008" data-link-type="dependency" data-source-line="37" id="lnk23"><path d="M412.09,336.6394 C472.32,352.3394 555.18,372.7194 629,386.6094 C655.01,391.4994 662.84,386.4094 688,394.6094 C719.99,405.0394 748.2927,420.4242 772.3527,435.3642" fill="none" id="PupilsCoursesApiController-to-MessagingPublisherService" style="stroke:#181818;stroke-width:1;"/><polygon fill="#181818" points="777.45,438.5294,771.9142,430.3835,773.2023,435.8918,767.694,437.1799,777.45,438.5294" style="stroke:#181818;stroke-width:1;"/><text fill="#000000" font-family="sans-serif" font-size="13" lengthAdjust="spacing" textLength="162.5889" x="630" y="383.1045">publish(PupilCourseUpdate)</text></g><!--link MessagingPublisherService to mq--><g class="link" data-entity-1="ent0008" data-entity-2="ent0015" data-link-type="dependency" data-source-line="38" id="lnk24"><path d="M894.59,486.7294 C914.99,494.4594 936.1,504.3294 954,516.6094 C977.24,532.5494 994.1184,553.9406 1005.0384,569.6706" fill="none" id="MessagingPublisherService-to-mq" style="stroke:#181818;stroke-width:1;"/><polygon fill="#181818" points="1008.46,574.5994,1006.6134,564.9252,1005.6087,570.4921,1000.0417,569.4873,1008.46,574.5994" style="stroke:#181818;stroke-width:1;"/><text fill="#000000" font-family="sans-serif" font-size="13" lengthAdjust="spacing" textLength="84.5508" x="974" y="531.1045">send message</text></g><!--link mq to MessagingListenerService--><g class="link" data-entity-1="ent0015" data-entity-2="ent0009" data-link-type="dependency" data-source-line="39" id="lnk25"><path d="M975.48,575.1494 C962.57,571.4994 948.25,567.6694 935,564.6094 C862.37,547.8594 842.05,553.6894 770,534.6094 C720.59,521.5194 671.5852,504.1499 631.6252,488.8899" fill="none" id="mq-to-MessagingListenerService" style="stroke:#181818;stroke-width:1;"/><polygon fill="#181818" points="626.02,486.7494,633.0008,493.697,630.691,488.5331,635.8548,486.2234,626.02,486.7494" style="stroke:#181818;stroke-width:1;"/><text fill="#000000" font-family="sans-serif" font-size="13" lengthAdjust="spacing" textLength="174.1416" x="771" y="531.1045">consume(PupilCourseUpdate)</text></g><!--link MessagingListenerService to PupilCourseService--><g class="link" data-entity-1="ent0009" data-entity-2="ent0007" data-link-type="dependency" data-source-line="40" id="lnk26"><path d="M568,486.6394 C568,508.7794 568,536.0494 568,558.2794" fill="none" id="MessagingListenerService-to-PupilCourseService" style="stroke:#181818;stroke-width:1;"/><polygon fill="#181818" points="568,564.2794,572,555.2794,568,559.2794,564,555.2794,568,564.2794" style="stroke:#181818;stroke-width:1;"/><text fill="#000000" font-family="sans-serif" font-size="13" lengthAdjust="spacing" textLength="130.0698" x="569" y="531.1045">updatePupilCourse(...)</text></g><!--link Flyway to db--><g class="link" data-entity-1="ent0017" data-entity-2="ent0016" data-link-type="dependency" data-source-line="44" id="lnk29"><path d="M974.93,762.4794 C923.03,790.6994 840.5812,835.5133 788.8812,863.6233" fill="none" id="Flyway-to-db" style="stroke:#181818;stroke-width:1;"/><polygon fill="#181818" points="783.61,866.4894,793.4275,865.7045,788.0027,864.101,789.6061,858.6762,783.61,866.4894" style="stroke:#181818;stroke-width:1;"/><text fill="#000000" font-family="sans-serif" font-size="13" lengthAdjust="spacing" textLength="84.5381" x="872" y="833.1045">Data Migration</text></g><!--link PupilCourseSecurityBeanConfig to PupilsCoursesApiController--><g class="link" data-entity-1="ent0013" data-entity-2="ent0005" data-link-type="dependency" data-source-line="45" id="lnk30"><path d="M519.38,173.8394 C523.78,192.4194 526.38,218.2994 514,236.6094 C495.19,264.4294 469.852,279.9441 438.452,290.9541" fill="none" id="PupilCourseSecurityBeanConfig-to-PupilsCoursesApiController" style="stroke:#181818;stroke-width:1;stroke-dasharray:7,7;"/><polygon fill="#181818" points="432.79,292.9394,442.6066,293.7361,437.5084,291.2849,439.9595,286.1867,432.79,292.9394" style="stroke:#181818;stroke-width:1;"/></g><!--link PupilCourseRabbitMQBeanConfig to MessagingPublisherService--><g class="link" data-entity-1="ent0014" data-entity-2="ent0008" data-link-type="dependency" data-source-line="46" id="lnk31"><path d="M794.41,173.7294 C797.93,231.3094 806.6839,374.6106 810.2139,432.3506" fill="none" id="PupilCourseRabbitMQBeanConfig-to-MessagingPublisherService" style="stroke:#181818;stroke-width:1;stroke-dasharray:7,7;"/><polygon fill="#181818" points="810.58,438.3394,814.0233,429.1121,810.2749,433.3487,806.0383,429.6002,810.58,438.3394" style="stroke:#181818;stroke-width:1;"/></g><!--link PupilCourseRabbitMQBeanConfig to MessagingListenerService--><g class="link" data-entity-1="ent0014" data-entity-2="ent0009" data-link-type="dependency" data-source-line="47" id="lnk32"><path d="M759.89,173.6794 C711.59,209.3394 623.01,282.7794 581,368.6094 C570.25,390.5694 567.7282,412.7302 567.4082,432.2802" fill="none" id="PupilCourseRabbitMQBeanConfig-to-MessagingListenerService" style="stroke:#181818;stroke-width:1;stroke-dasharray:7,7;"/><polygon fill="#181818" points="567.31,438.2794,571.4568,429.346,567.3918,433.28,563.4578,429.2151,567.31,438.2794" style="stroke:#181818;stroke-width:1;"/></g><?plantuml-src bLHDRzim3BthLn0vjGSxznu694ss5KWsTtQnCsspZZ1RKlJHpHZwtyVOwP8OYOFuP93lFP9wbBpqDK4IZApXKGVho444CrjifAV21uirfCM66XG22wyjp5GLQhI03YRO_qTcntSH_S76r3GHmZANaomzSSPALKMvrdw8Wxz201WiVc55N5vvg-kQBCU1lq8tHYjIlk_FxVkR6Nc0Cl3zM2Gb-oOBEg_G2-mX0y2QdCEAEqr2Nakt8Ni5jvBEapg6dJJoWunsaW-i7UlbW1hoUSHNMOtFKGGhVJidL3rwf0xckVJhvnFik-2Asq21NVe0J7Q-DbjHeiSS7MSIxNnbANrUmMBUfSjS78fyhjlVs0hniHPHz6d4BdY0hrcMm9Tb1bCqSjflnBJeiMA4-L_un4KMhCZtj9_IR_RKUViD6xgBu_XUd24Dj8vSE1ljy6NEjTBbQlcOtJfjyZqzD-uq63vckZRqnSraUTE7xexQVkb4xyLbsawqsJBRaIgXwN0aE79IRR3V32-qSe5FTQpOa7NHjNxsezJjPh7AgrJbl7qgfmxVw9fvBybYbYt1UVJ12T5lxY6zu9M7jQmiUgcL6Brf4CTZnelHgzUHBxytDt27Rz0_?></g></svg>